<svg
   width="31.999998"
   height="31.999998"
   viewBox="0 0 8.4666661 8.4666661"
   version="1.1"
   id="svg1"
   xml:space="preserve"
   xmlns="http://www.w3.org/2000/svg"
   xmlns:svg="http://www.w3.org/2000/svg">
   <path
       id="background"
       d="M 2.3543812e-7,0 H 8.466666 c 10e-8,0 2e-7,1.050054e-7 2e-7,2.3543812e-7 V 8.466666 c 0,10e-8 -1e-7,2e-7 -2e-7,2e-7 H 2.3543812e-7 C 1.050054e-7,8.4666662 0,8.4666661 0,8.466666 V 2.3543812e-7 C 0,1.050054e-7 1.050054e-7,0 2.3543812e-7,0 Z" /><path
       d="M 3.7041664,0.52916663 H 2.6458332 V 0.79374996 H 2.1166665 V 1.0583333 H 1.8520832 V 1.3229166 H 1.5874999 V 1.8520832 H 1.3229166 V 2.3812499 H 1.0583333 V 2.9104166 H 0.79374996 V 6.0854163 H 1.0583333 v 0.79375 H 1.3229166 V 7.1437496 H 1.5874999 V 7.408333 H 2.1166665 V 7.6729163 H 3.7041664 V 7.408333 H 3.9687497 V 6.8791663 H 3.7041664 V 7.1437496 H 3.439583 V 6.614583 H 3.7041664 V 6.3499997 H 3.9687497 V 6.0854163 H 3.7041664 V 6.3499997 H 3.439583 V 6.614583 H 2.9104166 V 6.8791663 H 3.1749997 V 7.1437496 H 2.3812499 V 6.8791663 H 2.1166665 V 6.3499997 H 2.3812499 V 6.0854163 H 2.9104166 V 6.3499997 H 3.1749997 V 6.0854163 H 2.9104166 V 5.820833 H 2.1166665 V 6.0854163 H 1.8520832 V 6.3499997 H 1.5874999 V 5.820833 H 1.3229166 V 4.7624997 H 1.5874999 V 4.4979163 H 1.8520832 V 4.7624997 H 2.1166665 V 5.027083 H 1.8520832 V 5.2916663 H 1.5874999 V 5.5562497 H 1.8520832 V 5.2916663 h 0.79375 V 5.5562497 H 2.9104166 V 5.2916663 H 2.6458332 V 5.027083 H 2.3812499 V 4.7624997 H 2.1166665 V 4.4979163 H 1.8520832 V 4.233333 H 1.5874999 V 3.9687497 H 1.3229166 V 3.439583 H 1.5874999 V 3.1749997 H 1.8520832 V 3.7041664 H 2.1166665 V 3.9687497 H 2.3812499 V 3.7041664 H 2.1166665 V 2.9104166 H 2.3812499 V 3.1749997 H 2.6458332 V 2.9104166 H 2.3812499 V 2.3812499 H 2.9104166 V 2.6458332 H 3.1749997 V 2.9104166 H 3.439583 V 2.6458332 H 3.1749997 V 2.3812499 H 2.9104166 V 2.1166665 H 2.3812499 V 2.3812499 H 2.1166665 V 2.6458332 H 1.8520832 V 2.1166665 H 2.1166665 V 1.5874999 H 2.3812499 V 1.3229166 H 2.9104166 V 1.0583333 H 3.1749997 V 1.5874999 H 2.6458332 V 1.8520832 H 3.1749997 V 1.5874999 H 3.439583 V 1.3229166 H 3.7041664 V 1.8520832 H 3.439583 V 2.3812499 H 3.7041664 V 2.6458332 H 3.9687497 V 2.3812499 H 3.7041664 V 1.8520832 H 3.9687497 V 0.79374996 H 3.7041664 Z"
       id="left-hemisphere" class="favicon-fill" /><path
       d="M 3.9687497,5.820833 H 3.7041664 V 5.5562497 H 3.439583 V 5.2916663 H 3.1749997 V 4.7624997 H 3.439583 V 4.4979163 H 3.7041664 V 4.233333 H 3.9687497 V 4.4979163 4.7624997 H 5.027083 V 4.4979163 H 5.2916663 V 3.9687497 H 5.5562497 V 3.7041664 H 5.820833 V 4.7624997 H 5.5562497 V 5.027083 H 5.2916663 V 5.2916663 H 3.9687497 Z"
       id="bottom-arrow" class="favicon-fill" /><path
       d="M 2.9104166,4.7624997 H 2.6458332 V 3.7041664 H 2.9104166 V 3.439583 H 3.1749997 V 3.1749997 H 4.4979163 V 2.6458332 H 4.7624997 V 2.9104166 H 5.027083 V 3.1749997 H 5.2916663 V 3.7041664 H 5.027083 V 3.9687497 H 4.7624997 V 4.233333 H 4.4979163 V 3.7041664 H 3.439583 V 3.9687497 H 3.1749997 V 4.4979163 H 2.9104166 Z"
       id="top-arrow" class="favicon-fill" /><path
       d="M 4.4979163,6.8791663 V 7.408333 h 0.2645834 v 0.2645833 h 1.5875 V 7.408333 H 6.8791663 V 7.1437496 H 7.1437496 V 6.8791663 H 7.408333 v -0.79375 H 7.6729163 V 2.9104166 H 7.408333 V 2.3812499 H 7.1437496 V 1.8520832 H 6.8791663 V 1.3229166 H 6.614583 V 1.0583333 H 6.3499997 V 0.79374996 H 5.820833 V 0.52916663 H 4.7624997 V 0.79374996 H 4.4979163 V 1.8520832 H 4.7624997 V 2.3812499 H 5.027083 V 1.8520832 H 4.7624997 V 1.3229166 H 5.027083 V 1.5874999 H 5.2916663 V 1.8520832 H 5.820833 V 1.5874999 H 5.2916663 V 1.0583333 H 5.5562497 V 1.3229166 H 6.0854163 V 1.5874999 H 6.3499997 V 2.1166665 H 6.614583 V 2.6458332 H 6.3499997 V 2.3812499 H 6.0854163 V 2.1166665 H 5.5562497 V 2.3812499 H 5.2916663 V 2.6458332 H 5.5562497 V 2.3812499 H 6.0854163 V 2.9104166 H 5.820833 V 3.1749997 H 6.0854163 V 2.9104166 H 6.3499997 V 3.7041664 H 6.0854163 V 3.9687497 H 6.3499997 V 3.7041664 H 6.614583 V 3.1749997 H 6.8791663 V 3.439583 H 7.1437496 V 3.9687497 H 6.8791663 V 4.233333 H 6.614583 V 4.4979163 H 6.3499997 V 4.7624997 H 6.0854163 V 5.027083 H 5.820833 V 5.2916663 H 5.5562497 V 5.5562497 H 5.820833 V 5.2916663 h 0.79375 V 5.5562497 H 6.8791663 V 5.2916663 H 6.614583 V 5.027083 H 6.3499997 V 4.7624997 H 6.614583 V 4.4979163 H 6.8791663 V 4.7624997 H 7.1437496 V 5.820833 H 6.8791663 V 6.3499997 H 6.614583 V 6.0854163 H 6.3499997 V 5.8208331 H 5.0270831 V 5.5562498 H 4.7624998 V 5.8208331 H 5.0270831 V 6.0854164 H 5.2916664 V 6.3499997 H 5.5562498 V 6.0854164 H 6.0854164 V 6.3499997 H 6.3499997 V 6.8791664 H 6.0854164 v 0.2645833 h -0.79375 V 6.8791664 H 5.5562498 V 6.614583 H 5.0270831 V 6.3499997 H 4.7624998 V 6.0854164 H 4.4979165 V 6.3499997 H 4.7624998 V 6.614583 H 5.0270831 V 7.1437497 H 4.7624998 V 6.8791664 Z"
       id="right-hemisphere" class="favicon-fill" />
       <style>
        .favicon-fill { fill: #EA580C; }
        #background { fill: #FDF6E3; }
        @media (prefers-color-scheme: dark) {
            .favicon-fill { filter: brightness(1.75); }
            #background { fill: #1C1917; }
        }
       </style>
       </svg>
